<?xml version="1.0" encoding="UTF-8"?>
<svg width="90px" height="90px" viewBox="0 0 90 90" version="1.1" xmlns="http://www.w3.org/2000/svg" xmlns:xlink="http://www.w3.org/1999/xlink">
    <title>logo</title>
    <g id="logo" stroke="none" stroke-width="1" fill="none" fill-rule="evenodd">
        <g id="编组-19备份-2" transform="translate(5.000000, 22.000000)">
            <g id="编组-14备份" transform="translate(40.000000, 23.000000) rotate(10.000000) translate(-40.000000, -23.000000) translate(3.000000, 7.000000)" stroke-linecap="round">
                <g id="编组-13备份-7" transform="translate(24.078384, 15.518138) rotate(1.000000) translate(-24.078384, -15.518138) translate(1.078384, 1.018138)">
                    <path d="M45.913482,5.1979113 C43.3702335,2.5856897 39.8153958,0.963254367 35.881618,0.963254367 C31.97267,0.963254367 28.4378935,2.5652729 25.8980332,5.14856518 C14.481455,15.4296439 5.91902135,23.140453 0.210732243,28.2809924" id="路径" stroke="#2E4FDE" stroke-width="3"></path>
                    <path d="M42.652792,11.8031219 C40.8524181,10.0567184 38.397164,8.98162718 35.690809,8.98162718 C33.2155336,8.98162718 30.9503098,9.88096495 29.2040676,11.3707105 C22.9409654,17.0947265 18.2436388,21.3877385 15.1120877,24.2497465" id="路径" stroke="#22AC38" stroke-width="2"></path>
                </g>
                <g id="编组-13备份-8" transform="translate(49.921616, 16.481862) scale(-1, -1) rotate(1.000000) translate(-49.921616, -16.481862) translate(26.921616, 1.981862)">
                    <path d="M45.913482,5.1979113 C43.3702335,2.5856897 39.8153958,0.963254367 35.881618,0.963254367 C31.97267,0.963254367 28.4378935,2.5652729 25.8980332,5.14856518 C14.481455,15.4296439 5.91902135,23.140453 0.210732243,28.2809924" id="路径" stroke="#2E4FDE" stroke-width="3"></path>
                    <path d="M42.652792,11.8031219 C40.8524181,10.0567184 38.397164,8.98162718 35.690809,8.98162718 C33.2155336,8.98162718 30.9503098,9.88096495 29.2040676,11.3707105 C23.9574134,16.1657676 19.8095509,19.9566096 16.7604803,22.7432366" id="路径" stroke="#22AC38" stroke-width="2"></path>
                </g>
            </g>
            <circle id="椭圆形" fill="#22AC38" cx="64" cy="16" r="2"></circle>
        </g>
    </g>
</svg>